<svg width="48" height="48" viewBox="0 0 48 48" fill="none" xmlns="http://www.w3.org/2000/svg">
<path d="M38.1409 24.02C38.4012 24.0568 38.6518 24.1446 38.8782 24.2783C39.1047 24.4121 39.3025 24.5891 39.4604 24.7994C39.6183 25.0097 39.7332 25.2491 39.7985 25.5038C39.8637 25.7586 39.8781 26.0237 39.8409 26.284C39.3395 29.752 37.7142 32.9598 35.2141 35.4151C32.714 37.8703 29.4774 39.4375 26.0009 39.876V42C26.0009 42.5304 25.7901 43.0391 25.4151 43.4142C25.04 43.7893 24.5313 44 24.0009 44C23.4704 44 22.9617 43.7893 22.5866 43.4142C22.2116 43.0391 22.0009 42.5304 22.0009 42V39.876C18.5248 39.4367 15.2888 37.8693 12.7892 35.4142C10.2896 32.959 8.66437 29.7516 8.16285 26.284C8.08753 25.7589 8.2239 25.2253 8.54196 24.8007C8.86002 24.3762 9.33372 24.0953 9.85885 24.02C10.384 23.9447 10.9175 24.081 11.3421 24.3991C11.7667 24.7172 12.0475 25.1909 12.1229 25.716C12.5365 28.5712 13.9647 31.1818 16.1461 33.0699C18.3274 34.958 21.1159 35.9972 24.0009 35.9972C26.8858 35.9972 29.6743 34.958 31.8556 33.0699C34.037 31.1818 35.4652 28.5712 35.8788 25.716C35.9161 25.456 36.0042 25.2058 36.1382 24.9799C36.2721 24.7539 36.4493 24.5565 36.6595 24.399C36.8698 24.2415 37.109 24.127 37.3635 24.062C37.618 23.9969 37.8808 23.9827 38.1409 24.02ZM24.0009 4C25.6389 4 27.1849 4.394 28.5489 5.092C27.6435 5.72879 26.932 6.60358 26.493 7.61963C26.0539 8.63567 25.9045 9.75336 26.0612 10.849C26.2179 11.9447 26.6746 12.9757 27.3809 13.828C28.0871 14.6802 29.0153 15.3205 30.0629 15.678L30.8189 15.938C31.1077 16.0365 31.3701 16.1999 31.5861 16.4155C31.8021 16.6311 31.9658 16.8933 32.0648 17.182L32.3228 17.938C32.6628 18.938 33.2509 19.802 34.0009 20.472V24C34.0009 26.6522 32.9473 29.1957 31.0719 31.0711C29.1966 32.9464 26.653 34 24.0009 34C21.3487 34 18.8051 32.9464 16.9298 31.0711C15.0544 29.1957 14.0009 26.6522 14.0009 24V14C14.0009 11.3478 15.0544 8.8043 16.9298 6.92893C18.8051 5.05357 21.3487 4 24.0009 4ZM38.0009 2C38.375 2 38.7417 2.10496 39.0592 2.30294C39.3766 2.50093 39.6322 2.784 39.7969 3.12L39.8928 3.354L40.1529 4.11C40.4273 4.91437 40.8694 5.65126 41.45 6.27189C42.0307 6.89251 42.7365 7.3827 43.5209 7.71L43.8909 7.85L44.6469 8.108C45.0212 8.23572 45.3493 8.4716 45.5897 8.78579C45.83 9.09999 45.9717 9.47839 45.997 9.87315C46.0223 10.2679 45.9299 10.6613 45.7316 11.0036C45.5333 11.3458 45.2379 11.6216 44.8829 11.796L44.6469 11.892L43.8909 12.152C43.0865 12.4264 42.3496 12.8686 41.729 13.4492C41.1083 14.0298 40.6182 14.7357 40.2909 15.52L40.1509 15.89L39.8928 16.646C39.7649 17.0203 39.5288 17.3482 39.2145 17.5883C38.9002 17.8285 38.5218 17.97 38.127 17.995C37.7323 18.0201 37.339 17.9275 36.9968 17.729C36.6547 17.5306 36.3791 17.2351 36.2048 16.88L36.1089 16.646L35.8489 15.89C35.5744 15.0856 35.1323 14.3487 34.5517 13.7281C33.971 13.1075 33.2652 12.6173 32.4809 12.29L32.1109 12.15L31.3549 11.892C30.9805 11.7643 30.6524 11.5284 30.412 11.2142C30.1717 10.9 30.03 10.5216 30.0047 10.1268C29.9794 9.73209 30.0718 9.3387 30.2701 8.99644C30.4684 8.65417 30.7638 8.3784 31.1189 8.204L31.3549 8.108L32.1109 7.848C32.9152 7.5736 33.6521 7.13144 34.2727 6.55081C34.8934 5.97019 35.3836 5.26433 35.7108 4.48L35.8508 4.11L36.1089 3.354C36.2436 2.95917 36.4984 2.61637 36.8377 2.37358C37.177 2.13079 37.5837 2.00017 38.0009 2Z" fill="#2409F1"/>
</svg>
