<svg width="48" height="48" viewBox="0 0 48 48" fill="none" xmlns="http://www.w3.org/2000/svg">
<path d="M10.8 39.2003C9.3 37.7003 8.12467 35.967 7.274 34.0003C6.42334 32.0337 5.99867 30.0003 6 27.9003C6.00134 25.8003 6.40134 23.7257 7.2 21.6763C7.99867 19.627 9.29867 17.7017 11.1 15.9003C13.1 13.9003 15.9253 12.3837 19.576 11.3503C23.2267 10.317 27.9513 9.88368 33.75 10.0503C34.6167 10.0837 35.4167 10.267 36.15 10.6003C36.8833 10.9337 37.5333 11.3837 38.1 11.9503C38.6667 12.517 39.1167 13.1757 39.45 13.9263C39.7833 14.677 39.9667 15.485 40 16.3503C40.0667 19.0837 39.992 21.609 39.776 23.9263C39.56 26.2437 39.2093 28.335 38.724 30.2003C38.2387 32.0657 37.6227 33.7243 36.876 35.1763C36.1293 36.6283 35.2373 37.8697 34.2 38.9003C32.4333 40.667 30.5587 41.959 28.576 42.7763C26.5933 43.5937 24.568 44.0017 22.5 44.0003C20.3333 44.0003 18.2167 43.575 16.15 42.7243C14.0833 41.8737 12.3 40.699 10.8 39.2003ZM16.4 38.4003C17.3667 38.967 18.3587 39.3757 19.376 39.6263C20.3933 39.877 21.4347 40.0017 22.5 40.0003C24.0333 40.0003 25.55 39.6923 27.05 39.0763C28.55 38.4603 29.9833 37.4683 31.35 36.1003C31.95 35.5003 32.5587 34.6583 33.176 33.5743C33.7933 32.4903 34.3267 31.0743 34.776 29.3263C35.2253 27.5783 35.5667 25.4617 35.8 22.9763C36.0333 20.491 36.0667 17.5323 35.9 14.1003C34.2667 14.0337 32.4253 14.009 30.376 14.0263C28.3267 14.0437 26.2847 14.2017 24.25 14.5003C22.2153 14.799 20.282 15.2823 18.45 15.9503C16.618 16.6183 15.118 17.535 13.95 18.7003C12.45 20.2003 11.4167 21.6837 10.85 23.1503C10.2833 24.617 10 26.0337 10 27.4003C10 29.367 10.3753 31.0923 11.126 32.5763C11.8767 34.0603 12.5347 35.1017 13.1 35.7003C14.5 33.0337 16.35 30.475 18.65 28.0243C20.95 25.5737 23.6333 23.5657 26.7 22.0003C24.3 24.1003 22.2087 26.4757 20.426 29.1263C18.6433 31.777 17.3013 34.8683 16.4 38.4003Z" fill="#2409F1"/>
</svg>
