<svg width="801" height="801" viewBox="0 0 801 801" fill="none" xmlns="http://www.w3.org/2000/svg">
<path d="M400.158 92C504.629 178.946 624.437 175.333 658.667 175.333C651.179 669.817 596.167 571.167 400.158 708.667C204.5 571.167 149.492 669.817 142 175.333C175.875 175.333 295.679 178.946 400.158 92Z" stroke="#2409F1" stroke-width="50" stroke-miterlimit="10" stroke-linecap="round" stroke-linejoin="round"/>
<path d="M421.104 285.333C415.79 285.364 410.622 287.082 406.348 290.24C402.073 293.397 398.912 297.831 397.32 302.902L387.696 332.793C386.626 336.189 384.815 339.305 382.392 341.914C375.047 349.87 368.873 358.832 364.056 368.529H356.232C352.591 363.49 347.322 359.862 341.316 358.257C337.848 357.321 333.912 357.334 329.34 357.334H327.324C322.764 357.334 318.804 357.333 315.348 358.257C310.771 359.483 306.598 361.891 303.247 365.241C299.895 368.59 297.485 372.762 296.256 377.338C295.32 380.818 295.332 384.754 295.332 389.338V463.342C295.332 467.902 295.332 471.862 296.256 475.318C297.482 479.894 299.89 484.068 303.239 487.419C306.588 490.77 310.76 493.181 315.336 494.41C318.816 495.346 322.752 495.346 327.336 495.334H329.34C333.9 495.334 337.86 495.334 341.316 494.41C347.645 492.716 353.143 488.78 356.784 483.334H436.332C452.424 483.334 463.404 482.638 472.14 478.93C479.659 475.725 486.2 470.592 491.1 464.05C496.68 456.634 499.26 446.938 503.088 432.586L503.568 430.81L511.86 402.406L511.98 402.046C513.9 395.638 515.496 390.286 516.42 385.846C517.356 381.298 517.812 376.678 516.6 372.046C514.842 365.225 510.596 359.309 504.696 355.462C500.628 352.833 496.092 351.909 491.52 351.489C487.116 351.081 481.644 351.082 475.152 351.082H447.528C453.924 330.742 451.824 314.289 448.368 303.357C444.372 290.661 432.264 285.333 421.716 285.333H421.104ZM361.344 465.334V389.326L361.332 386.529H375.516L379.044 378.898C383.241 369.83 388.829 361.473 395.604 354.129C399.804 349.605 402.936 344.194 404.844 338.302L414.444 308.421C414.868 306.975 415.742 305.701 416.94 304.786C418.138 303.871 419.597 303.362 421.104 303.333H421.716C427.116 303.333 430.284 305.853 431.208 308.781C434.16 318.129 436.296 334.582 426.216 356.29C425.579 357.661 425.298 359.17 425.398 360.679C425.498 362.188 425.977 363.647 426.791 364.922C427.604 366.196 428.725 367.246 430.051 367.973C431.376 368.7 432.864 369.081 434.376 369.082H474.744C481.752 369.082 486.384 369.081 489.864 369.405C493.284 369.729 494.424 370.27 494.916 370.582C496.968 371.902 498.516 374.026 499.188 376.582C499.368 377.278 499.512 378.706 498.78 382.222C498.06 385.774 496.68 390.382 494.616 397.27L494.592 397.33L486.216 425.962L486.192 426.058C481.668 443.014 479.916 448.978 476.712 453.238C473.714 457.246 469.711 460.392 465.108 462.358C460.2 464.434 452.796 465.334 436.332 465.334H361.344ZM320.004 375.633C320.856 375.405 322.164 375.334 328.332 375.334C334.488 375.334 335.808 375.405 336.66 375.633C338.185 376.043 339.575 376.846 340.692 377.962C341.808 379.078 342.611 380.469 343.02 381.994C343.26 382.858 343.332 384.178 343.332 390.334V462.334C343.332 468.49 343.26 469.81 343.032 470.662C342.623 472.186 341.82 473.577 340.704 474.693C339.587 475.809 338.197 476.612 336.672 477.022C335.808 477.262 334.488 477.334 328.332 477.334C322.176 477.334 320.856 477.262 320.004 477.022C318.479 476.612 317.089 475.809 315.973 474.693C314.856 473.577 314.053 472.186 313.644 470.662C313.404 469.81 313.332 468.502 313.332 462.334V390.334C313.332 384.178 313.416 382.858 313.644 382.006C314.053 380.481 314.856 379.09 315.973 377.974C317.089 376.858 318.479 376.055 320.004 375.646" fill="#2409F1"/>
</svg>
